<svg width="192" height="192" viewBox="0 0 192 192" fill="none" xmlns="http://www.w3.org/2000/svg">
  <rect width="192" height="192" rx="24" fill="#2563eb"/>
  <path d="M96 55C79.4315 55 66 68.4315 66 85V105H58C52.4772 105 48 109.477 48 115V161C48 166.523 52.4772 171 58 171H134C139.523 171 144 166.523 144 161V115C144 109.477 139.523 105 134 105H126V85C126 68.4315 112.569 55 96 55Z" fill="white"/>
  <path d="M78 85C78 75.0589 86.0589 67 96 67C105.941 67 114 75.0589 114 85V105H78V85Z" fill="#2563eb"/>
  <circle cx="96" cy="135" r="8" fill="#2563eb"/>
  <rect x="92" y="143" width="8" height="16" rx="4" fill="#2563eb"/>
</svg>