<svg width="512" height="512" viewBox="0 0 512 512" fill="none" xmlns="http://www.w3.org/2000/svg">
  <rect width="512" height="512" rx="64" fill="#2563eb"/>
  <path d="M256 147.2C212.221 147.2 176 183.421 176 227.2V281.6H155.733C142.074 281.6 128 295.674 128 309.333V430.933C128 444.593 142.074 458.667 155.733 458.667H356.267C369.926 458.667 384 444.593 384 430.933V309.333C384 295.674 369.926 281.6 356.267 281.6H336V227.2C336 183.421 299.779 147.2 256 147.2Z" fill="white"/>
  <path d="M208 227.2C208 200.824 228.824 179.2 256 179.2C283.176 179.2 304 200.824 304 227.2V281.6H208V227.2Z" fill="#2563eb"/>
  <circle cx="256" cy="360" r="21.333" fill="#2563eb"/>
  <rect x="245.333" y="381.333" width="21.334" height="42.667" rx="10.667" fill="#2563eb"/>
</svg>